<?xml version="1.0" encoding="UTF-8"?>
<svg version="1.1" viewBox="0 0 2048 944" width="735" height="339" xmlns="http://www.w3.org/2000/svg">
<path transform="translate(1205,218)" d="m0 0h52l1 1v74h48v-74l1-1h49l1 1v74h126v43l-125 1 7 11 13 18 24 34 13 18 11 16 13 18 16 23 13 18 14 20 4 6h-55l-13-18-14-20-24-34-10-14-10-15-2-1-1 102h-51l-1-182-47-1v102l1 21 2 7 5 5 8 2 16 1 1 1v43h-38l-14-3-12-6-10-9-7-9-5-14-1-4-1-131v-5h-46v176l-1 1h-53l-1-158v-63l1-1h53l48 1v-74z" fill="#0463A9"/>
<path transform="translate(518,677)" d="m0 0 53 1 4 1 19 2 22 4 22 6 15 6 21 11 8 6 4-1 16-10 16-8 18-6 31-7 11-1 3-1 17-1 2-1h46l11 11 9 11 9 9 9 11 8 8 7 8 11 12 9 10v2l-32 1-40 4-25 4-29 6-26 8-20 8-19 10-11 8-5 4v7l-5 5-10 5-8 2h-14l-15-5-8-7-1-4v-5l-10-7-14-9-16-8-17-7-28-8-29-5-14-2-13-1-3-1-24-1-4-1-34-1 6-8 7-7 8-10 11-12 7-8 10-11 7-8 11-12z" fill="#FBCE77"/>
<path transform="translate(929,345)" d="m0 0h13l9 4 7 8 4 9 1 5v10l-4 16-8 15-8 10-1 3h11l26 5 17 5 18 8 14 9 10 9 9 10 8 14 6 15 1 7-6-2-16-7-20-7-18-5-11-2h-33l-16 4-17 8-15 10-13 10-14 9-11 4-13 1-16-3-16-7 5 5 9 8 19 11 20 10 17 10 12 9 8 10 4 11v9l-4 13-5 8-19-9-27-14-30-15-13-7 3-3v-2l-13-5-17-9-11-8-10-9-8-9-6-12-2-8v-12l4-13 7-10 10-11 16-11h2l-2-10v-20l4-9 9-10h2l-2 4-5 7-3 9v10l3 7 6 5 6 2h14l9-4 6-8 2-8-1-11-4-7-7-3h-8l-7 4-3 8 1 9 5 3 6-1 2-2-1-7-1-3 4 1 4 5 1 2v7l-6 7-8 3-9-1-5-4-3-8 1-12 5-15 13-4 17-3 40-2 15-3 12-6 2-5 2-6v-7l-3-12-1-3 5-5 10-5zm-87 57 2 4 7 6 4 7 2 5h2l1-2v-12l-6-7-3-1zm-15 59-9 4-8 7-4 7-2 7v9l3 10 6 10 7 8h2v-8l5 2h3l-2-4-6-8-5-10v-11l4-6 7-5 3-1h11l5 5 1 2v11l-3 4-8 1-8-3v-4l9-4v-2l-9 1-5 4-1 4 3 6 6 5 7 3h10l6-4 4-7 1-11-3-9-6-8-8-4-3-1zm-34 2-10 7-3 7-1 6v23l3 10 6 9 8 8 16 10 22 12 18 11 7 5 2-1-7-8-8-8-17-12-18-12-11-9-7-10-4-12v-15l4-15 1-6zm254 21v2l2-1zm2 2m-5 3 2 4 5 4 2-1-8-7z" fill="#1F1F23"/>
<path transform="translate(413,345)" d="m0 0h14l12 5 6 4-1 7-2 7v12l4 8 9 6 11 3 6 1 36 2 22 3 12 4 5 12 1 4v15l-4 6-7 3-9-1-6-4-4-4-1-7 4-6 3-3 3 1-3 5 1 5 4 2 6-1 3-3v-10l-3-6-3-3-3-1h-8l-8 4-4 8v12l5 10 6 5 6 2h13l8-3 5-5 3-8v-7l-4-12-4-6-3-3 5 2 7 8 4 11v15l-2 12 15 10 13 13 7 11 3 9 1 12-3 13-5 9-7 9-7 7-14 10-10 6-18 8-4 2 4 4-50 25-38 20-5-5-5-14v-13l4-10 11-12 17-11 27-14 19-11 10-8 3-3h2l-1-2-19 7-11 2-13-1-11-4-16-10-14-11-16-10-16-7-13-3h-33l-20 4-30 10-20 9h-2l3-10 5-13 8-13 9-11 12-10 15-9 21-8 25-6 12-2h11l-3-5-9-12-6-13-3-11v-15l4-11 6-8zm92 57-6 3-4 8 1 11h3l4-9 7-8 4-4-2-1zm11 59-10 4-7 8-3 8v10l4 9 6 5 6 1 12-4 6-5 2-3v-6l-6-5-9-1 1 2 8 4 1 3-5 3-10 1-3-1-2-6v-7l3-6 4-3h10l10 5 5 8v8l-4 10-6 8-3 3 1 3 7-3v9l3-1 8-10 4-8 2-7v-14l-4-9-6-7-9-5-4-1zm45 2 4 13 2 17-2 12-5 10-9 10-12 9-14 9-14 10-12 11-5 7 5-2 14-9 18-10 21-12 12-9 7-8 4-9 2-10v-15l-2-13-6-7-6-4z" fill="#1F1E22"/>
<path transform="translate(778,20)" d="m0 0 5 5 9 11 11 14 14 19 12 19 10 18 8 17 7 21 3 14 1 8v21l-3 17-5 15-8 16-9 15-8 11-11 14-9 11-11 13-11 14-12 16-11 17-11 20-9 23-7 28-2 1-3-33v-46l3-24 6-24 8-23 12-29 11-28 8-28 4-20 3-26 1-25v-20l-3-42-3-26z" fill="#0463A9"/>
<path transform="translate(577,20)" d="m0 0 1 3-4 32-2 26v49l3 29 5 26 7 23 8 22 16 39 10 30 4 19 3 25v37l-4 39-2-2-4-19-9-27-12-23-11-17-14-19-14-17-9-11-14-17-13-18-9-15-7-14-5-15-3-14-1-9v-10l3-22 6-20 10-23 13-23 10-15 13-18 11-14 13-16z" fill="#0464A9"/>
<path transform="translate(386,823)" d="m0 0h8l35 8 26 4 29 3 37 2 24 1h70l71-2 62 2h72l47-2 43-4 31-5 25-6 13-1 10 3 9 5 5 5v6l-7 6-13 4h-10l-8-4-3-6v-7l-4 1-1 10 4 9-8 4-14 4-16 2h-28l-38-3-62-6-44-3-25-1 3 5 11 14 8 16 1 4v10l-4 8-7 7-13 6-20 5-14 2h-17l-19-3-15-4-14-7-5-5-4-6-1-3v-9l4-12 7-11 7-9 4-5 1-3-45 2-110 10-16 1h-28l-19-3-16-6-1-2 4-7v-7l-2-4-3-1-1 9-5 6-6 2h-10l-11-3-7-6-1-6 6-7 11-5zm290 38-8 3-8 6-4 6-2 6v13l5 10 7 7 11 4h8l9-3 8-6 5-8 1-3v-15l-5-10-8-7-9-3z" fill="#019C50"/>
<path transform="translate(518,677)" d="m0 0 53 1 4 1 19 2 22 4 22 6 15 6 21 11 8 6 4-1 16-10 16-8 18-6 31-7 11-1 3-1 17-1 2-1h46l11 11 9 11 9 9 9 11 8 8 7 8 11 12 9 10v2l-32 1-40 4-25 4-29 6-26 8-20 8-19 10-11 8-5 4v7l-5 5-10 5-8 2h-14l-15-5-8-7-1-4v-5l-10-7-14-9-16-8-17-7-28-8-29-5-14-2-13-1-3-1-24-1-4-1-34-1 6-8 7-7 8-10 11-12 7-8 10-11 7-8 11-12zm14 7-5 4-11 14-12 15-13 17-6 9 1 1 34 2 23 2 30 5 19 5 24 8 18 7 16 8 14 8 11 7 6 4 7-1 18-12 25-13 26-10 16-5 18-5 20-4 21-3 23-2h25l3-1-2-5-12-14-11-14-10-13-9-11-2-2h-26l-38 4-20 4-21 6-18 7-22 12-7 5h-5v-2l-28-16-20-8-16-4-25-5-32-3z" fill="#D0AA6D"/>
<path transform="translate(677,402)" d="m0 0 2 1 10 29 13 33 11 25 12 24 12 19 10 13 11 12 10 8 15 8 19 5 15 3 44 22 5 3-4 4-16 8-16 5-12 2-13-1-17-4-14-6-11-7-13-11-5-4-7-8-13-17-14-24-10-23-9-27-6-25-4-24-4-33-7 49-7 32-10 30-9 20-10 18-11 16-12 14-9 9-13 10-15 8-15 5-17 3-12-1-16-4-15-6-11-7 4-3 22-11 19-10 7-3 25-5 13-5 11-7 10-9 10-10 12-17 9-15 10-19 13-29 11-29 11-30z" fill="#1F1E21"/>
<path transform="translate(494,220)" d="m0 0 2 2 5 15 9 15 8 10 9 11 13 14 7 8 11 12 9 11 14 18 13 21 11 23 8 24 4 21 2 17v33l-3 26-5 25-4 14-7 9-2 1 4-24 1-12v-21l-2-14-5-16-5-11-9-16-10-13-11-13-24-28-14-19-11-19-7-15-6-18-5-24-1-7-1-18v-12l1-23z" fill="#EA202A"/>
<path transform="translate(861,219)" d="m0 0h1l1 14v41l-4 27-6 22-8 18-8 15-11 16-11 14-12 14-13 15-12 15-12 19-8 18-5 21-1 8v17l3 23 3 14-3-1-7-10-6-24-4-25-2-30 1-24 4-25 6-21 8-20 9-17 11-17 13-17 11-13 11-12 7-8 11-12 9-11 10-13 9-16z" fill="#EA202A"/>
<path transform="translate(433,772)" d="m0 0h16l38 3 38 5 32 6 28 8 22 9 11 6 11 8 12 12v2l-10 1h-105l-43-3-35-4-36-6-19-4-1-3 5-13 7-11 10-9 12-5z" fill="#009C50"/>
<path transform="translate(915,772)" d="m0 0h15l14 4 11 7 8 9 7 14 2 8-15 4-35 6-42 5-42 3h-104l-11-1 3-5 11-11 14-9 17-8 24-8 29-7 39-6 40-4z" fill="#009C50"/>
<path transform="translate(671,499)" d="m0 0 1 4-7 26-10 30-11 24-9 16-8 12-9 11-9 10-10 9-15 10-15 7-18 5-8 1h-18l-17-3-17-6-16-8-12-8-13-10 1-3 26-13 5 1 21 11 16 5 9 2 16 1 16-2 15-5 12-6 14-10 13-12 9-10 11-15 10-16 7-12 13-28z" fill="#1F1E22"/>
<path transform="translate(683,498)" d="m0 0 2 1 10 26 8 17 12 21 11 16 8 10 9 10 9 9 12 9 16 9 16 5 16 2 15-1 17-4 15-6 15-8 4-1 28 14-1 3-15 11-15 9-15 7-17 5-14 2h-18l-15-3-17-6-14-8-10-8-10-9-8-8-12-16-9-15-9-17-9-22-10-32-5-20z" fill="#1F1E22"/>
<path transform="translate(726,298)" d="m0 0 1 3-3 14-3 25-1 17v18l2 28 6 48 5 48 2 18h-2l-10-20-10-19-11-25-9-25-5-19-2-12-1-11v-9l2-16 4-13 8-16 10-14 12-14z" fill="#1F1E22"/>
<path transform="translate(628,298)" d="m0 0 3 1 9 11 10 12 9 14 6 13 4 14 1 6v25l-4 22-6 20-11 27-7 16-20 38-1-3 3-31 4-35 5-39 2-22v-44l-3-25-3-16z" fill="#1F1E21"/>
<path transform="translate(387,460)" d="m0 0h24l19 2 18 4 11 4 12 7 6 7 3 8-2 9-6 8-3 3-5-1-10-6-19-10-19-8-21-5-6-1h-27l-22 4-39 13 1-3 8-7 14-10 16-8 20-6 17-3z" fill="#F8CA75"/>
<path transform="translate(945,460)" d="m0 0h21l19 2 22 5 14 5 14 8 11 8v3l1 3-9-2-22-7-15-3-8-1h-29l-18 4-19 7-19 9-19 11-4-1-7-9-2-5v-8l4-7 8-7 16-8 16-4 13-2z" fill="#F7CA75"/>
<path transform="translate(1104,218)" d="m0 0h51l1 1v53h-53v-53z" fill="#EA1F2A"/>
<path transform="translate(407,430)" d="m0 0h25l15 3 12 6 8 9 1 5-5 6-8-1-5-3-2-5 1-1h7l4 1-2-8-8-1-5 5-1 10-12-1-19-2h-29l-14 2-20 6-21 11-15 10-8 6-2-1 7-10 9-10 10-9 16-10 17-8 20-6 15-3z" fill="#F7CA76"/>
<path transform="translate(925,430)" d="m0 0h24l20 3 21 6 16 7 14 8 9 7 10 9 9 11 1 4-4-1-17-11-14-8-14-6-15-4-14-2h-30l-24 3h-5l-1-9-4-6h-7l-4 6v2h11l1 3-5 5-6 2-6-1-3-4 1-6 7-8 8-5 14-4z" fill="#F6CA75"/>
<path transform="translate(590,864)" d="m0 0 4 1-37 19-24 9-17 4-6 1h-31l-14-4-16-8-14-9-1-2 21 1h16l40-2 44-5z" fill="#029C51"/>
<path transform="translate(771,864)" d="m0 0 12 1 51 7 35 3 23 1h18l20-1v2l-17 11-13 6-16 4h-31l-21-5-19-7-25-12-17-9z" fill="#019C51"/>
<path transform="translate(1564,682)" d="m0 0 12 2 8 7 1 1 1-8 4-1 5 1v50l-1 17-4 9-9 8-10 3h-15l-13-4 1-7 2-1 10 3h14l8-4 4-5 2-7 1-11-11 8-3 1h-15l-8-4-7-8-4-11v-13l4-11 6-8 8-5zm-3 9-6 4-4 5-3 10v9l3 9 8 7 9 2 8-3 5-5 3-6v-19l-4-8-5-4-2-1z" fill="#0B68AB"/>
<path transform="translate(1328,789)" d="m0 0 9 1 5 3 4 5 1 2 3-1 5-5 4-3 10-2 10 2 8 9 3 12v35l-1 4h-9l-1-35-2-11-4-5-4-2h-7l-6 3-4 6-1 3-1 41h-10l-1-43-4-7-5-3-9 1-6 5-3 6-1 41-3 1-7-1v-61h8l1 2-1 8 10-8z" fill="#0A67AB"/>
<path transform="translate(1163,765)" d="m0 0 2 2-9 9-9 11-9 10-3 4 1 4 12 17 18 27 1 3h-9l-3-1-10-14-10-15-7-11-4 1-6 7v32h-11v-85h10v41l5-5 14-17 8-10 7-9z" fill="#0866AA"/>
<path transform="translate(604,868)" d="m0 0 1 2-4 8-1 5v19l4 13 3 5v3l-26-2-23-3-21-6-12-5 1-2 19-4 21-8 17-9 17-12z" fill="#019C50"/>
<path transform="translate(760,869)" d="m0 0 5 2 9 8 21 12 19 8 19 5 7 2-4 3-21 7-22 4-32 3h-3l2-6 4-10 1-4v-22z" fill="#029C51"/>
<path transform="translate(1237,654)" d="m0 0h10l1 56 3-1 2-4 13-15 5-6 5-1h8l-6 7-12 13-4 5 2 4 14 19 8 10 2 4-14-1-13-18-7-10-4 2-2 3-1 23h-10z" fill="#0866AA"/>
<path transform="translate(1488,683)" d="m0 0h16l10 4 8 9 3 7 1 5v11l-3 10-6 9-8 5-6 2h-16l-9-4-6-5-6-12v-19l6-12 8-7zm2 8-7 4-5 8-1 3v16l5 10 5 4 3 1h11l7-4 5-7 1-4v-17l-4-8-6-5-2-1z" fill="#0B68AB"/>
<path transform="translate(1387,683)" d="m0 0h16l8 3 8 7 4 8 2 9-1 13-3 8-8 9-8 4-4 1h-15l-8-3-7-6-6-12v-19l4-9 7-8 7-4zm1 8-7 5-5 10-1 5v7l3 9 5 7 6 3h11l8-5 5-10v-16l-3-7-5-6-4-2z" fill="#0B68AB"/>
<path transform="translate(1595,790)" d="m0 0h20l8 5 4 6 2 14v36l-4 1-4-1-1-7-5 3-10 5h-12l-7-4-5-8v-10l4-8 9-6 14-3 10-1-2-9-4-4-2-1h-14l-9 2-1-1v-6zm15 30-12 3-5 5-1 2v8l3 5 4 2 9-1 6-4 3-3 1-3v-14z" fill="#0E6AAC"/>
<path transform="translate(1418,790)" d="m0 0h20l7 4 4 5 2 5 1 6v41l-2 1-7-2v-6l-11 7-4 1h-11l-5-2-5-5-3-6v-8l4-9 9-6 14-3 10-1-1-8-4-5-10-2-11 2-5 2-1-7zm15 30-9 2-7 4-2 4v8l5 6 8 1 8-4 5-6v-15z" fill="#0D69AC"/>
<path transform="translate(1188,683)" d="m0 0h15l7 3 5 4 5 10 1 4v11l-20 1h-15l-10-1 3 11 4 6 7 4 12 1 14-2 1 1v6l-5 2-5 1h-19l-8-3-7-6-5-10-1-4v-15l4-11 7-8 7-4zm3 7-6 3-6 7-2 5v3h34l-1-7-3-6-5-4-3-1z" fill="#0C68AC"/>
<path transform="translate(1197,789)" d="m0 0 12 2 7 6 3 5 1 4 1 45h-9l-1-6-14 7h-13l-5-3-5-6-2-6 1-8 3-6 6-5 10-4 7-1h11l-2-10-6-5-7-1-11 2-6 1-1-6 10-4zm4 31-11 3-6 5-1 8 3 6 5 3 8-1 7-4 3-4 1-5v-10l-1-1z" fill="#0A67AB"/>
<path transform="translate(1162,576)" d="m0 0h13l6 3 5 5 3 6 1 4v44h-10l-1-42-3-7-6-4h-10l-6 4-4 6-1 42-1 1h-9l-1-1v-60h9v9l10-8z" fill="#0C68AB"/>
<path transform="translate(1325,682)" d="m0 0 12 2 8 7 3 6 1 4v43h-10l-1-39-3-9-5-4h-12l-5 3-4 7-1 4v38h-11v-61h8l1 1v9l10-8z" fill="#0765AA"/>
<path transform="translate(1471,790)" d="m0 0h8l1 1v9l10-8 4-2h15l8 5 5 9 1 5v42h-10l-1-39-3-9-5-4-2-1h-7l-8 4-4 6-1 4-1 39h-10z" fill="#0665AA"/>
<path transform="translate(1678,789)" d="m0 0 10 2 8 7 4 9v44h-10l-1-38-2-8-4-5-5-2-10 1-5 4-3 5-1 4-1 39h-10v-61h8v10l12-9z" fill="#0665AA"/>
<path transform="translate(1378,577)" d="m0 0h10l1 42 4 8 7 3 7-1 6-4 3-3 1-3 1-42h10l1 60-1 1h-7l-1-1v-8l-5 3-9 6-11 1-8-3-7-8-2-7z" fill="#0966AB"/>
<path transform="translate(1120,658)" d="m0 0h15l26 1v8l-26 1-1 76h-10v-76l-26-1-1-3 1-5z" fill="#0866AA"/>
<path transform="translate(1221,576)" d="m0 0h16l5 2 1 5-2 4-7-3h-9l-5 3-1 1v8l8 5 12 6 6 7 1 3v8l-4 7-5 4-4 2-6 1h-8l-12-3v-6l1-2 6 1 2 1h13l5-4 1-7-2-5-5-2-12-5-5-4-3-6v-8l3-6 7-6z" fill="#0D69AC"/>
<path transform="translate(1271,562)" d="m0 0h3l1 14h15l1 2-1 6h-16l1 39 2 5 2 1 11 1v7l-4 2-13-1-6-5-3-8v-41h-10v-7l2-1h7l1-11z" fill="#0967AB"/>
<path transform="translate(1458,562)" d="m0 0h3l1 14h15l1 4-1 4h-16l1 38 2 6 2 1 11 1v7l-4 2h-8l-6-2-5-4-3-9v-40h-9l-1-7 2-1 8 1v-12z" fill="#0A67AB"/>
<path transform="translate(1344,562)" d="m0 0h3l1 14h14l1 1v7h-16l1 39 2 5 2 1 10 1 1 2-1 6-4 1h-7l-7-2-5-5-2-6v-42h-10v-8h9l1-11z" fill="#0966AB"/>
<path transform="translate(1554,775)" d="m0 0h2v15h16v7l-16 1 1 40 2 4 2 1 11 1-1 7-1 1h-14l-5-3-4-6-1-3-1-42h-8l-1-1v-7h10v-12z" fill="#126CAE"/>
<path transform="translate(430,392)" d="m0 0 9 1 3 3v5l-5 4-3 1-1 2 9-3 3-2 2-6 20 5 18 4 2 2v6h-22l-18 3h-15l-8-3-4-4-1-9 4-6z" fill="#E37E38"/>
<path transform="translate(921,392)" d="m0 0 8 1 5 3 3 6v5l-7 8-5 2h-16l-18-3h-22v-8l30-6 9-2 4 6 5 3h5l-8-5-1-6 4-3z" fill="#E37E38"/>
<path transform="translate(1240,761)" d="m0 0h9l1 1v89h-10l-1-3v-86z" fill="#136DAE"/>
<path transform="translate(1440,654)" d="m0 0h9l1 1v89l-3 1-7-1z" fill="#0363A9"/>
<path transform="translate(1107,552)" d="m0 0h10l1 2-1 84h-9l-1-1z" fill="#0464A9"/>
<path transform="translate(1271,790)" d="m0 0h10v61h-10z" fill="#0363A9"/>
<path transform="translate(1304,577)" d="m0 0h10v61h-10z" fill="#0463A9"/>
<path transform="translate(1614,683)" d="m0 0h9l1 1v60l-3 1-7-1z" fill="#0564A9"/>
<path transform="translate(923,375)" d="m0 0h13l10 3 5 4 1 2v9l-5 12-3 4h-2l-2-12-5-6-4-2-13-1 1-10z" fill="#E37C38"/>
<path transform="translate(420,375)" d="m0 0h9l7 2 2 6v5l-13 1-7 4-3 6-2 9-4-2-5-11-1-9 3-5 6-4z" fill="#E37D38"/>
<path transform="translate(457,417)" d="m0 0h16l9 3 10 9 3 9-1 8-4 6-7 6-7 2 9-9 2-4-1-7-5-6-12-7-18-6v-3z" fill="#D2A465"/>
<path transform="translate(413,355)" d="m0 0h11l11 4-1 12-16 1-10 3-4 3-3-1v-7l3-9 6-5z" fill="#E37E38"/>
<path transform="translate(933,355)" d="m0 0h11l8 7 2 5 1 9-4 1-13-5-16-1-2-12z" fill="#E37E38"/>
<path transform="translate(886,417)" d="m0 0h10l9 2-2 2-17 6-11 6-5 6-2 7 4 7 7 6-2 1-8-5-6-7-2-6 1-9 6-8 9-6z" fill="#D3A263"/>
<path transform="translate(452,436)" d="m0 0 5 2 8 7 3 6-2 5-3 3-8-1-5-3-2-5 1-1h7l4 1-2-8-8-2 3-2z" fill="#EEC374"/>
<path transform="translate(898,438)" d="m0 0 9 1v1l-7 1-4 6v2h11l1 3-5 5-6 2-6-1-3-4 1-6 7-8z" fill="#F4C875"/>
<path transform="translate(1616,659)" d="m0 0h6l3 3v6l-4 4-7-1-2-3 1-7z" fill="#0F6AAD"/>
<path transform="translate(1306,552)" d="m0 0 7 1 2 3-1 7-3 2-7-1-2-3 1-7z" fill="#0F6AAD"/>
<path transform="translate(1272,766)" d="m0 0h7l3 4-1 7-2 1h-7l-3-3 1-7z" fill="#0866AA"/>
<path transform="translate(886,417)" d="m0 0h10l9 2-2 2-6 1v-3l-11 1-3 1h-8l2-2z" fill="#E38239"/>
<path transform="translate(959,481)" d="m0 0 3 1-4 2-16 4-14 6 1-4 20-7z" fill="#182F44"/>
<path transform="translate(491,448)" d="m0 0v3l-8 7-7 2 4-4 6-5z" fill="#D69B5A"/>
<path transform="translate(894,447)" d="m0 0 2 2h11l1 3-3 3-3-4h-8z" fill="#D0AA6D"/>
<path transform="translate(467,417)" d="m0 0 10 1 6 3-3 1-9-2h-4z" fill="#E38239"/>
<path transform="translate(492,431)" d="m0 0 2 3 1 8-2 4-2-9z" fill="#E38239"/>
<path transform="translate(937,487)" d="m0 0h2v2l-11 5 1-4z" fill="#15354E"/>
<path transform="translate(898,438)" d="m0 0 9 1v1l-7 1-4 6-1-4z" fill="#D0AA6D"/>
<path transform="translate(672,497)" d="m0 0" fill="#FDFDFD"/>
</svg>
